<?xml version="1.0" encoding="UTF-8"?><svg id="Layer_1" xmlns="http://www.w3.org/2000/svg" width=".564cm" height=".564cm" viewBox="0 0 15.987 15.987"><defs><style>.cls-1{fill:#8eef97;}</style></defs><path class="cls-1" d="M12.781.587H3.207c-.545,0-.987.381-.987.852v13.111c0,.47.442.852.987.852h9.574c.545,0,.987-.381.987-.852V1.438c0-.47-.442-.852-.987-.852ZM11.986,6.843c-.234.447-.685,1.033-1.355,1.757-.871.949-1.506,1.728-1.904,2.338-.313.481-.553.986-.717,1.513-.165-.541-.4-1.049-.705-1.523-.305-.474-.896-1.211-1.773-2.211-.643-.733-1.039-1.199-1.187-1.396-.244-.321-.421-.615-.53-.884-.109-.268-.163-.54-.163-.815,0-.509.197-.935.59-1.279.393-.344.879-.516,1.458-.516.584,0,1.092.179,1.522.536.324.266.587.662.789,1.19.175-.518.422-.912.741-1.183.441-.367.951-.55,1.53-.55.574,0,1.06.171,1.458.512.398.342.598.748.598,1.221,0,.413-.117.842-.351,1.289Z"/></svg>