<?xml version="1.0" encoding="UTF-8"?><svg id="Layer_1" xmlns="http://www.w3.org/2000/svg" width=".564cm" height=".564cm" viewBox="0 0 15.987 15.987"><defs><style>.cls-1{fill:#fc7f7f;}</style></defs><path class="cls-1" d="M9.521,14.103h-3.055v1.527h-1.527v-1.527h-2.291c-.422,0-.764-.342-.764-.764v-2.291H.357v-1.527h1.527v-3.055H.357v-1.527h1.527v-2.291c0-.422.342-.764.764-.764h2.291V.357h1.527v1.527h3.055V.357h1.527v1.527h2.291c.422,0,.764.342.764.764v2.291h1.527v1.527h-1.527v3.055h1.527v1.527h-1.527v2.291c0,.422-.342.764-.764.764h-2.291v1.527h-1.527v-1.527ZM4.175,4.175v3.055h3.055v-3.055h-3.055Z"/></svg>