<?xml version="1.0" encoding="UTF-8"?><svg id="Layer_1" xmlns="http://www.w3.org/2000/svg" width=".564cm" height=".564cm" viewBox="0 0 15.987 15.987"><defs><style>.cls-1{fill:#fc7f7f;}</style></defs><path class="cls-1" d="M7.994.456c4.163,0,7.538,3.375,7.538,7.538s-3.375,7.538-7.538,7.538S.456,12.157.456,7.994,3.831.456,7.994.456ZM11.012,8.655c-.26-.395-.448-.681-1.162-.568-1.35.214-1.499.45-1.564.839l-.018.118-.018.125c-.074.515-.071.71.166.958.954,1.001,1.525,1.722,1.698,2.144.084.206.302.83.152,1.446.922-.366,1.735-.949,2.376-1.686.083-.282.143-.633.143-1.058v-.079c0-.695,0-1.012-.491-1.293-.207-.118-.362-.189-.486-.245-.277-.126-.46-.209-.707-.57-.029-.043-.058-.086-.087-.13ZM7.994,1.838c-1.747,0-3.324.728-4.444,1.896.133.093.25.223.329.402.154.345.154.7.154,1.014,0,.248,0,.482.079.652.109.232.578.331.992.418.148.031.3.063.439.101.381.106.677.448.913.723.098.114.243.283.316.324.038-.027.16-.159.22-.376.046-.165.033-.312-.035-.391-.421-.497-.399-1.456-.268-1.809.205-.557.846-.516,1.315-.485.175.011.34.022.463.007.469-.059.613-.772.716-.912.22-.302.894-.756,1.312-1.037-.764-.34-1.61-.529-2.499-.529Z"/></svg>